PathFileType	4	(X/Y/Z)	S1_nor_fast_right.trc
DataRate	CameraRate	NumFrames	NumMarkers	Units	OrigDataRate	OrigDataStartFrame	OrigNumFrames
250.00	250.00	13	18	mm	250.00	4893	6523
Frame#	Time	c7	r_should	l_should	clavicle	r_upa	r_elb_l	r_elb_m	r_low	r_wri_l	r_wri_m	r_met	l_upa	l_elb_l	l_elb_m	l_low	l_wri_l	l_wri_m	l_met
	X1	Y1	Z1	X2	Y2	Z2	X3	Y3	Z3	X4	Y4	Z4	X5	Y5	Z5	X6	Y6	Z6	X7	Y7	Z7	X8	Y8	Z8	X9	Y9	Z9	X10	Y10	Z10	X11	Y11	Z11	X12	Y12	Z12	X13	Y13	Z13	X14	Y14	Z14	X15	Y15	Z15	X16	Y16	Z16	X17	Y17	Z17	X18	Y18	Z18
4893	19.56800	941.84222	1417.41443	173.39970	1031.03308	1342.03430	342.16367	986.64032	1370.95361	-27.91690	1086.51550	1309.48657	143.62546	1038.66174	1130.97705	381.93936	1066.86877	1034.88318	388.61404	1009.62720	1011.62207	307.72470	1071.00720	899.41638	361.19434	1162.02234	838.89642	372.79807	1141.58569	830.27100	299.67249	1165.35974	755.50275	382.75754	990.25629	1147.19153	-71.97520	998.16650	1062.77087	-86.04865	938.26819	1037.58203	-4.70913	956.91541	919.48291	-96.05959	1034.84814	830.94849	-81.63697	962.61279	819.16205	-92.64310	1052.13672	755.17670	-106.16357
4894	19.57200	941.77533	1417.38696	173.47475	1031.23010	1341.92395	342.15265	986.49432	1371.01611	-27.88810	1086.44702	1309.50281	143.56299	1039.33533	1130.81726	381.68103	1067.69543	1034.65381	388.30328	1010.35785	1011.39532	307.36673	1071.26843	899.04144	361.11670	1161.94556	838.08398	372.88284	1141.56006	829.36560	299.74081	1164.86206	754.65796	383.09082	990.18622	1147.26196	-71.99225	998.10754	1062.83313	-86.08604	938.20465	1037.63342	-4.76302	956.90033	919.54889	-96.14718	1034.85107	831.03168	-81.72359	962.63538	819.23511	-92.74585	1052.18066	755.25562	-106.22836
4895	19.57600	941.70465	1417.36328	173.55302	1031.43066	1341.82104	342.14264	986.34503	1371.08850	-27.84943	1086.38086	1309.52930	143.51234	1039.99060	1130.66870	381.41284	1068.52466	1034.43372	387.98322	1011.13342	1011.16266	306.96790	1071.53503	898.66742	361.02728	1161.84851	837.28418	372.96170	1141.46497	828.50629	299.84241	1164.36548	753.83234	383.42178	990.10504	1147.33875	-72.01032	998.04297	1062.89771	-86.12940	938.13794	1037.68469	-4.81110	956.88165	919.61670	-96.23290	1034.85522	831.12897	-81.80856	962.65308	819.32001	-92.84873	1052.22839	755.35431	-106.30047
4896	19.58000	941.64288	1417.35010	173.64464	1031.63416	1341.71582	342.14069	986.18646	1371.16235	-27.80820	1086.31226	1309.55872	143.46194	1040.65967	1130.52893	381.16162	1069.35950	1034.20642	387.64462	1011.91614	1010.94183	306.55899	1071.80933	898.30603	360.93976	1161.75928	836.49207	373.04184	1140.48035	827.63196	300.43311	1163.81592	753.04504	383.80606	990.01013	1147.41870	-72.03016	998.00574	1062.98120	-86.18256	938.05780	1037.73523	-4.86891	956.86212	919.68671	-96.31642	1034.85742	831.23364	-81.89227	962.66797	819.39862	-92.95387	1052.27551	755.45496	-106.36639
4897	19.58400	941.58344	1417.33923	173.74423	1031.84021	1341.62000	342.14536	986.02325	1371.24243	-27.75869	1086.24451	1309.59058	143.40437	1041.33850	1130.39551	380.92093	1070.20166	1033.99072	387.29660	1012.67517	1010.74768	306.14990	1072.07275	897.96594	360.86453	1161.66919	835.71600	373.12436	1138.30420	826.62537	301.63562	1163.27136	752.28021	384.19525	989.90424	1147.50647	-72.05281	998.00580	1063.07629	-86.23830	937.97870	1037.79163	-4.92334	956.83801	919.76373	-96.40123	1034.85852	831.34546	-81.97865	962.67975	819.48175	-93.05797	1052.32935	755.56494	-106.43483
4898	19.58800	941.52539	1417.32275	173.84175	1032.04053	1341.52234	342.15726	985.85712	1371.32068	-27.71747	1086.18884	1309.61963	143.36517	1042.04016	1130.25098	380.65735	1071.06372	1033.77283	386.92346	1013.40009	1010.57758	305.75134	1072.33521	897.63214	360.78192	1161.57971	834.94568	373.20160	1137.62183	825.67651	302.01767	1162.74341	751.51367	384.56949	989.78595	1147.59595	-72.07905	997.93634	1063.16736	-86.27489	937.89587	1037.85425	-4.98206	956.80713	919.84827	-96.48814	1034.86023	831.46014	-82.06236	962.68805	819.57275	-93.16899	1052.38391	755.67688	-106.50606
4899	19.59200	941.47229	1417.30750	173.95749	1032.24866	1341.42090	342.16608	985.68439	1371.40149	-27.66383	1086.13220	1309.64807	143.32930	1042.79468	1130.10962	380.37534	1071.94604	1033.56311	386.56046	1014.13129	1010.43439	305.34235	1072.61206	897.30475	360.69046	1161.47473	834.15710	373.26688	1137.31934	824.73383	302.17758	1162.22559	750.74432	384.92944	989.65759	1147.68701	-72.10075	997.84137	1063.26147	-86.31070	937.79993	1037.91406	-5.03275	956.76648	919.94220	-96.57618	1034.86206	831.57538	-82.14782	962.70062	819.67303	-93.29340	1052.43518	755.79718	-106.57975
4900	19.59600	941.42029	1417.29138	174.08868	1032.46191	1341.32837	342.17508	985.51001	1371.49231	-27.59068	1086.07019	1309.68481	143.28081	1043.56714	1129.97632	380.08325	1072.83472	1033.37769	386.20871	1014.94000	1010.26892	304.89731	1072.89661	896.98590	360.59201	1161.37671	833.38831	373.33334	1137.10840	823.83453	302.28696	1161.72424	749.99048	385.28192	989.51367	1147.78589	-72.13041	997.73004	1063.35864	-86.35185	937.70123	1037.97949	-5.09243	956.72931	920.03998	-96.66336	1034.86133	831.69855	-82.23467	962.70758	819.77271	-93.41692	1052.48596	755.92230	-106.65531
4901	19.60000	941.37317	1417.27942	174.21652	1032.67407	1341.23755	342.19073	985.33557	1371.58472	-27.52181	1086.01294	1309.71460	143.24344	1044.31238	1129.83789	379.80551	1073.71948	1033.20129	385.85330	1015.77661	1010.08795	304.44061	1073.17810	896.67358	360.48563	1161.29370	832.64801	373.39996	1136.91370	822.93842	302.38583	1161.21118	749.24261	385.65414	989.35919	1147.89026	-72.16087	997.61902	1063.46228	-86.38830	937.60620	1038.05347	-5.15344	956.68744	920.14667	-96.75464	1034.85681	831.83270	-82.32764	962.71228	819.88489	-93.53492	1052.53906	756.06268	-106.73021
4902	19.60400	941.32520	1417.25867	174.34929	1032.90247	1341.15198	342.21332	985.16089	1371.67932	-27.45191	1085.95996	1309.74390	143.21497	1045.05664	1129.70715	379.54361	1074.63623	1033.00671	385.48764	1016.56519	1009.91199	304.02219	1073.46362	896.37268	360.37708	1161.20813	831.90948	373.44986	1136.73157	822.04315	302.46399	1160.67578	748.53809	386.03250	989.20178	1148.00098	-72.19214	997.50366	1063.57629	-86.41861	937.49902	1038.13940	-5.20728	956.63757	920.25555	-96.84387	1034.84863	831.97144	-82.42007	962.71301	819.99841	-93.65350	1052.58594	756.21033	-106.81550
4903	19.60800	941.27979	1417.24487	174.49713	1033.14758	1341.06079	342.23605	984.98236	1371.78210	-27.37101	1085.90466	1309.77014	143.18347	1045.82520	1129.58459	379.28149	1075.57336	1032.79846	385.12723	1017.35815	1009.76251	303.60544	1073.75952	896.07910	360.25363	1161.11865	831.16315	373.48639	1136.54309	821.16699	302.53326	1160.15295	747.85437	386.40213	989.04120	1148.11499	-72.22514	997.37970	1063.70386	-86.46190	937.38495	1038.21899	-5.25609	956.58362	920.36652	-96.93573	1034.84277	832.11249	-82.50797	962.71411	820.11969	-93.78465	1052.63037	756.36163	-106.90075
4904	19.61200	941.23981	1417.22766	174.65346	1033.40515	1340.95911	342.26434	984.80328	1371.88123	-27.28796	1085.84802	1309.79626	143.14836	1046.60498	1129.45166	378.99292	1076.49841	1032.58521	384.76398	1018.13745	1009.62457	303.17676	1074.07080	895.78864	360.11179	1161.03137	830.42999	373.52347	1136.35815	820.29419	302.59790	1159.65112	747.17664	386.77484	988.86975	1148.23254	-72.25869	997.24878	1063.83228	-86.51328	937.26874	1038.28821	-5.30817	956.52570	920.47968	-97.02353	1034.83606	832.26263	-82.59827	962.72491	820.24084	-93.92333	1052.68237	756.51227	-106.98670
4905	19.61600	941.19995	1417.20508	174.82248	1033.68311	1340.84705	342.29138	984.62573	1371.98145	-27.20859	1085.80322	1309.81775	143.11717	1047.39771	1129.32104	378.70291	1077.39514	1032.37964	384.40533	1018.85675	1009.49469	302.78012	1074.38062	895.48718	359.96219	1160.97852	829.71765	373.56012	1136.18591	819.43573	302.65439	1159.18433	746.47620	387.10315	988.68585	1148.35620	-72.29066	997.10107	1063.97766	-86.57479	937.13989	1038.36304	-5.36102	956.46552	920.59100	-97.10659	1034.82434	832.41931	-82.68124	962.73682	820.37061	-94.05702	1052.72791	756.68164	-107.07351
